<svg width="25" height="25" viewBox="0 0 25 25" fill="none" xmlns="http://www.w3.org/2000/svg">
<mask id="mask0_34_49" style="mask-type:alpha" maskUnits="userSpaceOnUse" x="0" y="0" width="25" height="25">
<rect x="0.0330715" y="0.310791" width="24" height="24" fill="#D9D9D9"/>
</mask>
<g mask="url(#mask0_34_49)">
<path d="M9.43307 16.8108L12.0331 14.2108L14.6331 16.8108L16.0331 15.4108L13.4331 12.8108L16.0331 10.2108L14.6331 8.81079L12.0331 11.4108L9.43307 8.81079L8.03307 10.2108L10.6331 12.8108L8.03307 15.4108L9.43307 16.8108ZM7.03307 21.3108C6.48307 21.3108 6.01224 21.115 5.62057 20.7233C5.2289 20.3316 5.03307 19.8608 5.03307 19.3108V6.31079H4.03307V4.31079H9.03307V3.31079H15.0331V4.31079H20.0331V6.31079H19.0331V19.3108C19.0331 19.8608 18.8372 20.3316 18.4456 20.7233C18.0539 21.115 17.5831 21.3108 17.0331 21.3108H7.03307Z" fill="#E9F4F4"/>
</g>
</svg>
